<svg xmlns="http://www.w3.org/2000/svg" xmlns:xlink="http://www.w3.org/1999/xlink" width="640" height="121.71"><rect width="640" height="121.71" rx="5" ry="5" class="a"/><svg y="0%" x="0%"><circle cx="20" cy="20" r="6" fill="#ff5f58"/><circle cx="40" cy="20" r="6" fill="#ffbd2e"/><circle cx="60" cy="20" r="6" fill="#18c132"/></svg><svg height="21.71" viewBox="0 0 60 2.171" width="600" x="15" xmlns="http://www.w3.org/2000/svg" xmlns:xlink="http://www.w3.org/1999/xlink" y="70"><style>@keyframes ah{0%{transform:translateX(-60px)}2.38%{transform:translateX(-120px)}2.39%{transform:translateX(-180px)}4.75%{transform:translateX(-240px)}4.76%{transform:translateX(-300px)}7.15%{transform:translateX(-420px)}9.53%{transform:translateX(-480px)}9.54%{transform:translateX(-540px)}11.91%{transform:translateX(-660px)}14.29%{transform:translateX(-780px)}16.66%{transform:translateX(-900px)}19.03%{transform:translateX(-1020px)}21.41%{transform:translateX(-1140px)}23.78%{transform:translateX(-1260px)}26.16%{transform:translateX(-1380px)}28.55%{transform:translateX(-1500px)}30.93%{transform:translateX(-1620px)}33.32%{transform:translateX(-1740px)}35.7%{transform:translateX(-1800px)}35.71%{transform:translateX(-1860px)}38.09%{transform:translateX(-1920px)}38.11%{transform:translateX(-1980px)}40.49%{transform:translateX(-2100px)}42.87%{transform:translateX(-2160px)}42.88%{transform:translateX(-2220px)}45.25%{transform:translateX(-2280px)}45.26%{transform:translateX(-2340px)}47.64%{transform:translateX(-2460px)}50.02%{transform:translateX(-2580px)}52.39%{transform:translateX(-2700px)}54.77%{transform:translateX(-2820px)}57.14%{transform:translateX(-2940px)}59.53%{transform:translateX(-3060px)}61.91%{transform:translateX(-3180px)}64.28%{transform:translateX(-3300px)}66.66%{transform:translateX(-3420px)}69.05%{transform:translateX(-3540px)}71.43%{transform:translateX(-3660px)}73.81%{transform:translateX(-3780px)}76.2%{transform:translateX(-3900px)}78.58%{transform:translateX(-4020px)}80.96%{transform:translateX(-4140px)}83.35%{transform:translateX(-4260px)}85.72%{transform:translateX(-4380px)}88.11%{transform:translateX(-4500px)}90.48%{transform:translateX(-4620px)}92.87%{transform:translateX(-4740px)}95.25%{transform:translateX(-4860px)}97.63%{transform:translateX(-4980px)}to{transform:translateX(-5100px)}}.a{fill:#282d35}.f{fill:#a8cc8c}.h{fill:#dbab79}.j{fill:#71bef2}.l{fill:#d290e4}.n{fill:#66c2cd}.p{fill:#b9bfca}.r{fill:#6f7783}.t{fill:#e88388}.x{fill:#73bef3}.z{fill:#d290e3}.C{fill:#fff}</style><g font-size="1.67" font-family="Monaco,Consolas,Menlo,'Bitstream Vera Sans Mono','Powerline Symbols',monospace"><defs><symbol id="1"><path class="f" d="M0 0h50v2.171H0z"/><text y="1.67" fill="#002" text-decoration="line-through">#000022.strikethrough.bggreen</text></symbol><symbol id="2"><path class="h" d="M0 0h50v2.171H0z"/><text y="1.67" fill="#003" text-decoration="underline">#000033.underline.bgyellow</text></symbol><symbol id="3"><path class="j" d="M0 0h50v2.171H0z"/><text y="1.67" fill="#004" font-style="italic">#000044.italic.bgblue</text></symbol><symbol id="4"><path class="l" d="M0 0h50v2.171H0z"/><text y="1.67" fill="#005" font-weight="700">#000055.bold.bgmagenta</text></symbol><symbol id="5"><path class="n" d="M0 0h50v2.171H0z"/><text y="1.67" fill="#006">#000066.reverse.bgcyan</text></symbol><symbol id="6"><path class="p" d="M0 0h50v2.171H0z"/><text y="1.67" fill="#007" text-decoration="line-through">#000077.strikethrough.bgwhite</text></symbol><symbol id="7"><path class="r" d="M0 0h50v2.171H0z"/><text y="1.67" fill="#008" text-decoration="underline">#000088.underline.bggray</text></symbol><symbol id="8"><path class="t" d="M0 0h50v2.171H0z"/><text y="1.67" fill="#009" font-style="italic">#000099.italic.bgredBright</text></symbol><symbol id="9"><path class="f" d="M0 0h50v2.171H0z"/><text y="1.67" fill="#00a" font-weight="700">#0000aa.bold.bggreenBright</text></symbol><symbol id="10"><path class="h" d="M0 0h50v2.171H0z"/><text y="1.67" fill="#00b">#0000bb.reverse.bgyellowBright</text></symbol><symbol id="11"><path class="x" d="M0 0h50v2.171H0z"/><text y="1.67" fill="#00c" text-decoration="line-through">#0000cc.strikethrough.bgblueBright</text></symbol><symbol id="12"><path class="z" d="M0 0h50v2.171H0z"/><text y="1.67" fill="#00d" text-decoration="underline">#0000dd.underline.bgmagentaBright</text></symbol><symbol id="13"><path class="n" d="M0 0h50v2.171H0z"/><text y="1.67" fill="#00e" font-style="italic">#0000ee.italic.bgcyanBright</text></symbol><symbol id="14"><path class="C" d="M0 0h50v2.171H0z"/><text y="1.67" fill="#00f" font-weight="700">#0000ff.bold.bgwhiteBright</text></symbol><symbol id="15">0<text y="1.67" fill="#000110">#000110.reverse.bgblack</text></symbol><symbol id="16"><path class="t" d="M0 0h50v2.171H0z"/><text y="1.67" fill="#000121" text-decoration="line-through">#000121.strikethrough.bgred</text></symbol><symbol id="17"><path class="f" d="M0 0h50v2.171H0z"/><text y="1.67" fill="#000132" text-decoration="underline">#000132.underline.bggreen</text></symbol><symbol id="18"><path class="h" d="M0 0h50v2.171H0z"/><text y="1.67" fill="#000143" font-style="italic">#000143.italic.bgyellow</text></symbol><symbol id="19"><path class="j" d="M0 0h50v2.171H0z"/><text y="1.67" fill="#000154" font-weight="700">#000154.bold.bgblue</text></symbol><symbol id="20"><path class="l" d="M0 0h50v2.171H0z"/><text y="1.67" fill="#000165">#000165.reverse.bgmagenta</text></symbol><symbol id="21"><path class="n" d="M0 0h50v2.171H0z"/><text y="1.67" fill="#000176" text-decoration="line-through">#000176.strikethrough.bgcyan</text></symbol><symbol id="22"><path class="p" d="M0 0h50v2.171H0z"/><text y="1.67" fill="#000187" text-decoration="underline">#000187.underline.bgwhite</text></symbol><symbol id="23"><path class="r" d="M0 0h50v2.171H0z"/><text y="1.67" fill="#000198" font-style="italic">#000198.italic.bggray</text></symbol><symbol id="24"><path class="t" d="M0 0h50v2.171H0z"/><text y="1.67" fill="#0001a9" font-weight="700">#0001a9.bold.bgredBright</text></symbol><symbol id="25"><path class="f" d="M0 0h50v2.171H0z"/><text y="1.67" fill="#0001ba">#0001ba.reverse.bggreenBright</text></symbol><symbol id="26"><path class="h" d="M0 0h50v2.171H0z"/><text y="1.67" fill="#0001cb" text-decoration="line-through">#0001cb.strikethrough.bgyellowBright</text></symbol><symbol id="27"><path class="x" d="M0 0h50v2.171H0z"/><text y="1.67" fill="#0001dc" text-decoration="underline">#0001dc.underline.bgblueBright</text></symbol><symbol id="28"><path class="z" d="M0 0h50v2.171H0z"/><text y="1.67" fill="#0001ed" font-style="italic">#0001ed.italic.bgmagentaBright</text></symbol><symbol id="29"><path class="n" d="M0 0h50v2.171H0z"/><text y="1.67" fill="#0001fe" font-weight="700">#0001fe.bold.bgcyanBright</text></symbol><symbol id="30"><path class="C" d="M0 0h50v2.171H0z"/><text y="1.67" fill="#00020f">#00020f.reverse.bgwhiteBright</text></symbol><symbol id="31">0<text y="1.67" fill="#000220" text-decoration="line-through">#000220.strikethrough.bgblack</text></symbol><symbol id="32"><path class="t" d="M0 0h50v2.171H0z"/><text y="1.67" fill="#000231" text-decoration="underline">#000231.underline.bgred</text></symbol><symbol id="33"><path class="f" d="M0 0h50v2.171H0z"/><text y="1.67" fill="#000242" font-style="italic">#000242.italic.bggreen</text></symbol><symbol id="34"><path class="h" d="M0 0h50v2.171H0z"/><text y="1.67" fill="#000253" font-weight="700">#000253.bold.bgyellow</text></symbol><symbol id="35"><path class="j" d="M0 0h50v2.171H0z"/><text y="1.67" fill="#000264">#000264.reverse.bgblue</text></symbol><symbol id="36"><path class="l" d="M0 0h50v2.171H0z"/><text y="1.67" fill="#000275" text-decoration="line-through">#000275.strikethrough.bgmagenta</text></symbol><symbol id="37"><path class="n" d="M0 0h50v2.171H0z"/><text y="1.67" fill="#000286" text-decoration="underline">#000286.underline.bgcyan</text></symbol><symbol id="38"><path class="p" d="M0 0h50v2.171H0z"/><text y="1.67" fill="#000297" font-style="italic">#000297.italic.bgwhite</text></symbol><symbol id="39"><path class="r" d="M0 0h50v2.171H0z"/><text y="1.67" fill="#0002a8" font-weight="700">#0002a8.bold.bggray</text></symbol><symbol id="40"><path class="t" d="M0 0h50v2.171H0z"/><text y="1.67" fill="#0002b9">#0002b9.reverse.bgredBright</text></symbol><symbol id="41"><path class="f" d="M0 0h50v2.171H0z"/><text y="1.67" fill="#0002ca" text-decoration="line-through">#0002ca.strikethrough.bggreenBright</text></symbol><symbol id="42"><path class="h" d="M0 0h50v2.171H0z"/><text y="1.67" fill="#0002db" text-decoration="underline">#0002db.underline.bgyellowBright</text></symbol><symbol id="a"><path fill="transparent" d="M0 0h60v2H0z"/></symbol></defs><path class="a" d="M0 0h60v2.171H0z"/><g style="animation-duration:21.161504s;animation-iteration-count:infinite;animation-name:ah;animation-timing-function:steps(1,end)"><svg width="5160"><svg><use xlink:href="#a"/><path class="t" d="M0 0h50v2.171H0z"/><text y="1.67" fill="#001">#000011.reverse.bgred</text></svg><svg x="60"><use xlink:href="#a"/><use xlink:href="#1"/></svg><svg x="120"><use xlink:href="#a"/><use xlink:href="#1"/></svg><svg x="180"><use xlink:href="#a"/><use xlink:href="#2"/></svg><svg x="240"><use xlink:href="#a"/><use xlink:href="#2"/></svg><svg x="300"><use xlink:href="#a"/><use xlink:href="#3"/></svg><svg x="360"><use xlink:href="#a"/><use xlink:href="#3"/></svg><svg x="420"><use xlink:href="#a"/><use xlink:href="#4"/></svg><svg x="480"><use xlink:href="#a"/><use xlink:href="#4"/></svg><svg x="540"><use xlink:href="#a"/><use xlink:href="#5"/></svg><svg x="600"><use xlink:href="#a"/><use xlink:href="#5"/></svg><svg x="660"><use xlink:href="#a"/><use xlink:href="#6"/></svg><svg x="720"><use xlink:href="#a"/><use xlink:href="#6"/></svg><svg x="780"><use xlink:href="#a"/><use xlink:href="#7"/></svg><svg x="840"><use xlink:href="#a"/><use xlink:href="#7"/></svg><svg x="900"><use xlink:href="#a"/><use xlink:href="#8"/></svg><svg x="960"><use xlink:href="#a"/><use xlink:href="#8"/></svg><svg x="1020"><use xlink:href="#a"/><use xlink:href="#9"/></svg><svg x="1080"><use xlink:href="#a"/><use xlink:href="#9"/></svg><svg x="1140"><use xlink:href="#a"/><use xlink:href="#10"/></svg><svg x="1200"><use xlink:href="#a"/><use xlink:href="#10"/></svg><svg x="1260"><use xlink:href="#a"/><use xlink:href="#11"/></svg><svg x="1320"><use xlink:href="#a"/><use xlink:href="#11"/></svg><svg x="1380"><use xlink:href="#a"/><use xlink:href="#12"/></svg><svg x="1440"><use xlink:href="#a"/><use xlink:href="#12"/></svg><svg x="1500"><use xlink:href="#a"/><use xlink:href="#13"/></svg><svg x="1560"><use xlink:href="#a"/><use xlink:href="#13"/></svg><svg x="1620"><use xlink:href="#a"/><use xlink:href="#14"/></svg><svg x="1680"><use xlink:href="#a"/><use xlink:href="#14"/></svg><svg x="1740"><use xlink:href="#a"/><use xlink:href="#15"/></svg><svg x="1800"><use xlink:href="#a"/><use xlink:href="#15"/></svg><svg x="1860"><use xlink:href="#a"/><use xlink:href="#16"/></svg><svg x="1920"><use xlink:href="#a"/><use xlink:href="#16"/></svg><svg x="1980"><use xlink:href="#a"/><use xlink:href="#17"/></svg><svg x="2040"><use xlink:href="#a"/><use xlink:href="#17"/></svg><svg x="2100"><use xlink:href="#a"/><use xlink:href="#18"/></svg><svg x="2160"><use xlink:href="#a"/><use xlink:href="#18"/></svg><svg x="2220"><use xlink:href="#a"/><use xlink:href="#19"/></svg><svg x="2280"><use xlink:href="#a"/><use xlink:href="#19"/></svg><svg x="2340"><use xlink:href="#a"/><use xlink:href="#20"/></svg><svg x="2400"><use xlink:href="#a"/><use xlink:href="#20"/></svg><svg x="2460"><use xlink:href="#a"/><use xlink:href="#21"/></svg><svg x="2520"><use xlink:href="#a"/><use xlink:href="#21"/></svg><svg x="2580"><use xlink:href="#a"/><use xlink:href="#22"/></svg><svg x="2640"><use xlink:href="#a"/><use xlink:href="#22"/></svg><svg x="2700"><use xlink:href="#a"/><use xlink:href="#23"/></svg><svg x="2760"><use xlink:href="#a"/><use xlink:href="#23"/></svg><svg x="2820"><use xlink:href="#a"/><use xlink:href="#24"/></svg><svg x="2880"><use xlink:href="#a"/><use xlink:href="#24"/></svg><svg x="2940"><use xlink:href="#a"/><use xlink:href="#25"/></svg><svg x="3000"><use xlink:href="#a"/><use xlink:href="#25"/></svg><svg x="3060"><use xlink:href="#a"/><use xlink:href="#26"/></svg><svg x="3120"><use xlink:href="#a"/><use xlink:href="#26"/></svg><svg x="3180"><use xlink:href="#a"/><use xlink:href="#27"/></svg><svg x="3240"><use xlink:href="#a"/><use xlink:href="#27"/></svg><svg x="3300"><use xlink:href="#a"/><use xlink:href="#28"/></svg><svg x="3360"><use xlink:href="#a"/><use xlink:href="#28"/></svg><svg x="3420"><use xlink:href="#a"/><use xlink:href="#29"/></svg><svg x="3480"><use xlink:href="#a"/><use xlink:href="#29"/></svg><svg x="3540"><use xlink:href="#a"/><use xlink:href="#30"/></svg><svg x="3600"><use xlink:href="#a"/><use xlink:href="#30"/></svg><svg x="3660"><use xlink:href="#a"/><use xlink:href="#31"/></svg><svg x="3720"><use xlink:href="#a"/><use xlink:href="#31"/></svg><svg x="3780"><use xlink:href="#a"/><use xlink:href="#32"/></svg><svg x="3840"><use xlink:href="#a"/><use xlink:href="#32"/></svg><svg x="3900"><use xlink:href="#a"/><use xlink:href="#33"/></svg><svg x="3960"><use xlink:href="#a"/><use xlink:href="#33"/></svg><svg x="4020"><use xlink:href="#a"/><use xlink:href="#34"/></svg><svg x="4080"><use xlink:href="#a"/><use xlink:href="#34"/></svg><svg x="4140"><use xlink:href="#a"/><use xlink:href="#35"/></svg><svg x="4200"><use xlink:href="#a"/><use xlink:href="#35"/></svg><svg x="4260"><use xlink:href="#a"/><use xlink:href="#36"/></svg><svg x="4320"><use xlink:href="#a"/><use xlink:href="#36"/></svg><svg x="4380"><use xlink:href="#a"/><use xlink:href="#37"/></svg><svg x="4440"><use xlink:href="#a"/><use xlink:href="#37"/></svg><svg x="4500"><use xlink:href="#a"/><use xlink:href="#38"/></svg><svg x="4560"><use xlink:href="#a"/><use xlink:href="#38"/></svg><svg x="4620"><use xlink:href="#a"/><use xlink:href="#39"/></svg><svg x="4680"><use xlink:href="#a"/><use xlink:href="#39"/></svg><svg x="4740"><use xlink:href="#a"/><use xlink:href="#40"/></svg><svg x="4800"><use xlink:href="#a"/><use xlink:href="#40"/></svg><svg x="4860"><use xlink:href="#a"/><use xlink:href="#41"/></svg><svg x="4920"><use xlink:href="#a"/><use xlink:href="#41"/></svg><svg x="4980"><use xlink:href="#a"/><use xlink:href="#42"/></svg><svg x="5040"><use xlink:href="#a"/><use xlink:href="#42"/></svg><svg x="5100"><use xlink:href="#a"/><path class="x" d="M0 0h50v2.171H0z"/><text y="1.67" fill="#0002ec" font-style="italic">#0002ec.italic.bgblueBright</text></svg></svg></g></g></svg></svg>
